<svg id="math" xmlns="http://www.w3.org/2000/svg" width="600" height="600" viewBox="0 0 600 600">
  <defs>
    <style>
      .cls-1 {
        fill: #fff;
        fill-rule: evenodd;
      }
    </style>
  </defs>
  <path id="sigma_copy" data-name="sigma copy" class="cls-1" d="M418.141,219.488c-3.585,0,1.866,4.268-9.609,4.268s-7.97-4.268-11.381-4.268c-6.155-64.22-76.042-50.134-143.652-49.6l80.207,103.458s7.7,13.14,1.178,20.831L237.757,408.626c34.271,0.2,134.811,6.076,154.146-5.952,12.786-7.953,22.6-28.87,25.582-46.292,3.709,0-.347-6,12.084-6s6.056,6,9.562,6q-8.116,46.557-16.234,93.125c-2.261,12.967-20.1,15.993-20.1,15.993H167.562s-16.894-7.972-5.737-21.105c40.669-47.87,115.716-134.7,115.716-134.7s3.2-6.151.012-10.281c-39.4-51.095-72.507-93.631-111.9-144.727-9.589-12.436,3.825-19.186,3.825-19.186l224.713,0.614s18.8,0.973,20.081,20.491C415.807,179.968,416.67,196.122,418.141,219.488Z"/>
</svg>
