<svg xmlns="http://www.w3.org/2000/svg" id="maps" width="600" height="600" viewBox="0 0 600 600"><defs><style>.cls-1{fill:#fff;fill-rule:evenodd}</style></defs><path id="map_icon" d="M348.908,417.74L215.99,461.951,90.89,415.139l83.4-182.049L233.5,252.083a197.956,197.956,0,0,0,11.556,17.8c11.735,16.156,29.548,39.851,40.22,53.984-0.094.106-.192,0.207-0.281,0.319l-17.539,22.012a7.246,7.246,0,0,0,1.179,10.222,7.348,7.348,0,0,0,10.281-1.2L296.458,333.2a7.2,7.2,0,0,0,1.077-1.951c2.422-3.361,6.043-8.4,10.354-14.425a7.276,7.276,0,0,0,7.666,6.694L343.717,322a7.277,7.277,0,1,0-.752-14.535l-28.162,1.52a7.457,7.457,0,0,0-1.485.233c10.174-14.286,22.526-31.8,32.044-45.835a227.655,227.655,0,0,0,14.917-24.935l45.967,7.645L507.89,461.951ZM174.785,399.053L153.53,380.68a7.347,7.347,0,0,0-10.324.731,7.247,7.247,0,0,0,.706,10.267l21.255,18.373a7.348,7.348,0,0,0,10.324-.731A7.248,7.248,0,0,0,174.785,399.053ZM229.367,409.3a7.294,7.294,0,0,0-8.6-5.706L193.1,409.107a7.276,7.276,0,1,0,2.835,14.272l27.666-5.51A7.3,7.3,0,0,0,229.367,409.3Zm30.939-44.716a7.351,7.351,0,0,0-9.962,2.816l-13.793,24.5a7.245,7.245,0,0,0,2.8,9.9,7.353,7.353,0,0,0,9.962-2.816l13.793-24.5A7.244,7.244,0,0,0,260.306,364.586Zm144.4-34.929-13.747-12.143,9.16-7.6a7.233,7.233,0,1,0-9.931-10.517l-10.179,8.441-13.083-11.556a7.329,7.329,0,0,0-10.258,1.018,7.192,7.192,0,0,0,1.04,10.174l11.012,9.727-9.609,7.969a7.233,7.233,0,1,0,9.931,10.518l10.628-8.814,15.818,13.973a7.331,7.331,0,0,0,10.258-1.018A7.193,7.193,0,0,0,404.7,329.657ZM361.863,204.448a92.828,92.828,0,0,1-5.062,12.784c-15.582,34.363-62.623,92.775-62.623,92.775s-49.282-58.875-60.162-88.39c-0.6-1.626-10.207-23.327-10.207-36.443A70.369,70.369,0,1,1,361.863,204.448Zm-67.685-56.334a37.06,37.06,0,1,0,37.139,37.06A37.1,37.1,0,0,0,294.178,148.114Z" class="cls-1" data-name="map icon"/></svg>