<svg id="ag" xmlns="http://www.w3.org/2000/svg" width="600" height="600" viewBox="0 0 600 600">
  <defs>
    <style>
      .cls-1 {
        fill: #fff;
        fill-rule: evenodd;
      }
    </style>
  </defs>
  <g id="leaf">
    <path id="leaf-2" data-name="leaf" class="cls-1" d="M448.312,267.5c24.437,63.141-18.665,122.188-28,140,16.4,25.6,74,58,74,58l-56,32s-43.557-36.1-62-66c-43.387,15.772-105.61,2.011-114-2-131.346-62.8-169.416-188.8-154-326C240.2,230.023,387.736,110.991,448.312,267.5Zm-66,112s-5.864-76.966-48-112c-46.635-38.776-116-46-116-46s64.789,48.312,88,70C362.242,343.759,383.711,380.54,382.312,379.5Z"/>
  </g>
</svg>
