<svg xmlns="http://www.w3.org/2000/svg" id="adapt" width="600" height="600" viewBox="0 0 600 600"><defs><style>.cls-1{fill:#fff;fill-rule:evenodd}</style></defs><path id="adapt_arrows" d="M473.19,238.078L445.26,131.825l-18.328,33.262a182.739,182.739,0,0,0-126.908-51.082c-101.355,0-183.519,82.255-183.519,183.723a183.679,183.679,0,0,0,3.394,35.215c0.26,1.335,40.474,9.523,40.474,9.523s1.045,5.173-2.01-6.035a146.968,146.968,0,0,1-5.158-38.7c0-81.176,65.733-146.982,146.819-146.982a146.188,146.188,0,0,1,100.957,40.32l-37.649,20.915ZM125,362.143l27.994,106.063,18.37-33.2A183.546,183.546,0,0,0,298.557,486C400.143,486,482.5,403.885,482.5,302.6a182.634,182.634,0,0,0-3.4-35.152c-0.261-1.333-40.567-9.506-40.567-9.506s-1.046-5.164,2.015,6.023a146.148,146.148,0,0,1,5.17,38.635c0,81.032-65.883,146.722-147.154,146.722a146.838,146.838,0,0,1-101.188-40.25L235.1,388.193Z" class="cls-1" data-name="adapt arrows"/></svg>