<svg id="chem" xmlns="http://www.w3.org/2000/svg" width="600" height="600" viewBox="0 0 600 600">
  <defs>
    <style>
      .cls-1 {
        fill: #00bfff;
        fill-rule: evenodd;
      }
    </style>
  </defs>
  <path id="chem-2" data-name="chem" class="cls-1" d="M471.625,393.5c17.395,24.092,19.819,57.074,1.819,66.074-5.215,2.608-85.655,41.823-171.819,41.926-85.191.1-161.99-37.322-170.9-41.516-17-8-23.554-39.115-3.1-66.484,11.224-15.018,29.33-39.484,47.426-64H289.625a14,14,0,0,0,0-28H195.7c7.615-10.336,14.68-19.935,20.611-28h73.315a14,14,0,0,0,0-28H236.139c4.319-8.764,3.486-16,3.486-16v-12h50a14,14,0,0,0,0-28h-50v-26a24,24,0,0,1-24-24v-16a24,24,0,0,1,24-24h122a24,24,0,0,1,24,24v16a24,24,0,0,1-24,24v66a34.225,34.225,0,0,0,6,22C375.125,262.5,462.118,380.333,471.625,393.5Z"/>
</svg>
