<svg id="eng" xmlns="http://www.w3.org/2000/svg" width="600" height="600" viewBox="0 0 600 600">
  <defs>
    <style>
      .cls-1 {
        fill: #fff;
        fill-rule: evenodd;
      }
    </style>
  </defs>
  <path id="eng-2" data-name="eng" class="cls-1" d="M503.282,327.528l-24.623,6.408L478,324.7l-44-76s-6.134-14.661-33.848-27.42A115.448,115.448,0,0,0,197.419,331.671C192.764,354,200,376.7,200,376.7l44,76,9.956,12.577-14.179,14.383c-6.735,8.381-19.754,10.209-29.485,4.59l-42.583-24.584c-9.731-5.619-14.658-17.807-10.768-27.831l15.462-56.09A160.254,160.254,0,0,1,152.709,342.1L96.718,327.529C86.092,325.886,78,315.526,78,304.289v-49.17c0-11.237,8.092-21.6,18.718-23.241l55.048-14.327a160.245,160.245,0,0,1,20.228-35.373L156.94,127.569c-3.89-10.024,1.037-22.212,10.768-27.831l42.583-24.585c9.731-5.618,22.75-3.79,29.486,4.59l39.417,39.988a159.243,159.243,0,0,1,41.611,0l39.417-39.988c6.736-8.38,19.755-10.208,29.486-4.59l42.583,24.585c9.731,5.618,14.658,17.807,10.768,27.83l-15.054,54.609a160.206,160.206,0,0,1,20.228,35.373l55.049,14.327c10.626,1.643,18.718,12,18.718,23.241v49.17C522,315.524,513.908,325.885,503.282,327.528Zm-273.176-36.9,22.422-12.946,57,98.727a24,24,0,0,0,32.785,8.785l25.981-15a24,24,0,0,0,8.784-32.785l-57-98.727L342.5,225.737c8.661-5,65.886,25.9,69.2,31.639l44,76.21c5.1,8.839-9.163,54.513-18.616,76.574l3.293,11.948L496,518.7l-88,52L346.983,466.231l-0.983-1c-22.754-1.852-75.447-12.332-80.825-21.647l-44-76.21C217.861,361.636,221.445,295.628,230.106,290.628Z"/>
</svg>
