<svg xmlns="http://www.w3.org/2000/svg" id="commons" width="600" height="600" viewBox="0 0 600 600"><defs><style>.cls-1{fill:#fff;fill-rule:evenodd}</style></defs><path id="commons-2" d="M473.154,333.652c-24.2,40.745-62.655,41.165-127.942,40.389V344.727c41.437,0.5,80,3.322,97.76-19.543,25.714-33.1,1.912-76.421-33.461-82.08-11.221-60.372-61.083-43.572-71.279-37.679-11.5-33.678-55-63.876-101.279-45.052-31.288,12.728-45.972,38.722-45.272,82.08-34.542,8.61-62.731,46.543-34.773,82.731,17.629,22.819,56.424,20.169,97.76,19.543v29.314c-55.687.43-96.913,0.368-120.724-29.966C99.79,300.566,119.491,242.448,161.5,222.259c1.812-99.8,142.266-128.289,191.585-51.463,68.818-7.969,81.358,50.811,81.358,50.811s23.521,9.147,36.742,31.92C483.732,275.138,487.74,309.089,473.154,333.652ZM338.232,205.425c0.137,0.4.291,0.8,0.419,1.2C335.622,207.6,335.829,206.814,338.232,205.425ZM284.849,440.486V327.79c0-5.792-.21-11.511-0.136-16.79h-43.2a13,13,0,1,1,0-26h118a13,13,0,1,1,0,26H315.74c-0.138,6.973-.709,14.937-0.709,23.3V440.486c4.643-3.6,35.485-31.486,35.485-31.486s13.2-8.8,20,0,1.962,17.44-5.621,24.972l-46.584,44.3c-4.834,4.695-10.132,14.928-21.652,12.377-8.2-1.816-12.039-10.437-17.715-14.983l-51.176-48.857c-3.347-4.606-3.425-13.64,0-18.24C242.747,388.446,275.979,433.535,284.849,440.486Z" class="cls-1" data-name="commons"/></svg>