<svg xmlns="http://www.w3.org/2000/svg" id="query" width="600" height="600" viewBox="0 0 600 600"><defs><style>.cls-1{fill:#fff;fill-rule:evenodd}</style></defs><path id="_" d="M331.745,373.687V357.838q0-15.849,6.736-25.622t32.094-28.528q36.978-26.41,50.187-47.547t13.208-50.188c0,0.525-6.227-35.471-29.619-66.547-25-33.213-69.609-60.807-147.18-32.185-31.933,11.783-53.528,23.731-86.744,45.866l29.37,58.819c22.314-14.34,36.283-24.027,55.435-32.432,102.483-44.975,102.4,46.339,102.4,30.706a46.673,46.673,0,0,1-8.848,27.735q-8.853,12.42-36.585,32.226-28.794,21.137-39.622,39.886t-10.83,44.113v19.547h70Zm-66.3,123.488q12.147,11.751,34.339,11.755,21.657,0,33.811-12.019t12.151-32.886q0-21.657-12.019-33.283T299.783,419.12q-22.721,0-34.6,11.358t-11.886,33.547Q253.294,485.421,265.444,497.175Z" class="cls-1" data-name="?"/></svg>