<svg id="bookstore" xmlns="http://www.w3.org/2000/svg" width="600" height="600" viewBox="0 0 600 600">
  <defs>
    <style>
      .cls-1 {
        fill: #127bc4;
        fill-rule: evenodd;
      }
    </style>
  </defs>
  <path id="book_stack_copy" data-name="book stack copy" class="cls-1" d="M290.939,87.719s99.192,24.351,151.78,36.524c2.805,3.721,4.919,5.068,5.35,11.572a125.574,125.574,0,0,1-5.938,11.342L336.741,273.579s-10.924,10.064-17.842,10.35l-10.6-3.21L182.578,243.672s-14.911-6.561-24,12c-6.525,17.489,4.272,28.838,12.985,34.286l11.109,3.239L318.11,334.3s7.627,0.981,12.468-.625a13.894,13.894,0,0,0,7.365-5.953s75.145-90.093,114.712-137.133c11.1,2.507,6.125,19.009,6.125,19.009L347.525,346.108s-10.252,11.327-16.4,14.192L198.9,320.186c-9.389-3.239-32.929-10.776-32.929-10.776s-11.67-4.76-17.2,4.631c-6.615,11.232-6.043,29.74,4.271,37.774,3.868,3.013,13.566,6.683,13.566,6.683l138.34,43.438s17.891,5.567,26.945,3.107c5.253-1.427,17.553-15,17.553-15L460.378,256.087s4.379-5.571,8.437-6.423c3.5-.735,6.77,2.049,6.77,14.979l-7.2,8.789-117.4,146.614s-10.726,10.946-16.8,12.769c-4.96,1.487-22.911-3.5-22.911-3.5L152.338,377.779s-21.635-8.449-28.277,12.657c-4.147,13.178-6.269,28.346,5.286,37.75,3.654,2.974,12.223,7.281,12.223,7.281l161.457,51.424s25.943,8.438,30.687,6.552c4.46-1.975,14.191-12.554,14.191-12.554l123.26-153.066,7.477-8.408c5.633,1.712,9.582,7.565,9.936,14.657-2.733,3.939-8.324,11.7-8.324,11.7L363.778,493.317s-8.756,10.375-13.219,15.4c-13.2,14.877-25.159,6.131-25.159,6.131l-8.266-2.574L140.446,453.8s-12.131-4.017-17.214-7.872c-9.281-7.04-16.379-16.779-16.815-30.857-0.865-27.981,2.382-39.357,11.05-49.814,4.853-5.856,10.2-11.117,14.937-17.3-3.881-25.1-2.01-44.8,14.174-60.286-3.548-13.059-6.624-24.218,0-44,3.081-9.2,18-26,18-26L275.785,91.2a18.921,18.921,0,0,1,6.793-3.527A21.933,21.933,0,0,1,290.939,87.719Zm-6.365,38.639L271.683,138.8s-2.636,4.455-1.105,6.868c1.881,2.964,8,4,8,4l60,14a70.9,70.9,0,0,0,12,0,13.139,13.139,0,0,0,7.192-3.326l12.338-14.5s1.321-4.039-1.53-6.171c-3.389-2.535-12-4-12-4l-54-12a86.661,86.661,0,0,0-10,0A20.058,20.058,0,0,0,284.574,126.358Z"/>
</svg>
