<svg xmlns="http://www.w3.org/2000/svg" id="stats" width="600" height="600" viewBox="0 0 600 600"><defs><style>.cls-1{fill:#fff;fill-rule:evenodd}</style></defs><path id="pie_chart" d="M267.158,215.422L265.5,283.406l84,84c10.833,10.834,9.207,29.03,9.207,29.03l-0.75,17.989s4.441,10.241-15.21,14.595c-78.989,17.5-150.28,14.262-195.247-11.614-39.871-22.944-58-68-58-68v-52s0.923-24.647,26-48c42.082-39.19,107.735-46.18,137.008-47.812C268.012,200.729,267.158,215.422,267.158,215.422ZM299.5,185.406v110l30-28V251.121s-1.683-4.064,5.05-10.667l38.95-38.191v-8.19s1.936-6.193-5.808-8.614c-10.584-3.308-33.973-9.534-56.192-8.053C296.5,178.406,299.5,185.406,299.5,185.406Zm118-2-72,68V273.24l122-29.834a31.237,31.237,0,0,1,10-2,25.4,25.4,0,0,1,9,2.008l1-22.008s-6.981-11.675-26-22C445.85,190.911,417.5,183.406,417.5,183.406Zm-82,108,136.676-33.7s8.034-4.185,14.393,3.065c7.728,8.81,21.508,27.307,20.931,46.636-0.8,26.8-4,50-4,50s0.731,35.83-57.577,67.642c-5.919,3.229-14.423-1.642-14.423-1.642l-98-90Z" class="cls-1" data-name="pie chart"/></svg>