<svg xmlns="http://www.w3.org/2000/svg" id="bio_copy" width="600" height="600" data-name="bio copy" viewBox="0 0 600 600"><defs><style>.cls-1{fill:#fff;fill-rule:evenodd}</style></defs><path id="dbl_helix_copy" d="M280.125,168.016h-26c3.333-30.133,3.333-30.535,2-40l-56,32-22-14c42.1-22.667,16.567-8.667,76-42-2-6-3-8.667-4-12s-9.333-11.667,4-18,17,7.333,18,10a134.165,134.165,0,0,1,8,32C282.74,136.539,281.116,159.512,280.125,168.016Zm-140-20c20.74,14.431,24.958,32.1,52,42,31.787,11.632,67.393-.022,98,6,16.4,3.225,37.1,9.668,52,20,41.278,28.611,64.037,80.32,48,140h-28c0-4,2-8,2-12-6.43,4.29-22,14-22,14s-34.224-1.57-34-8c12.085-7.182,60-34,60-34s-1.632-17.23-6-32l-106,58c9.232,22.314,44,42.666,72,42s110.2-12.721,149.333,51.6c6.914,11.366-13.723,23.019-21.693,10.546-6.489-10.156-31.8-29.977-53.64-34.146-11.464-2.189-23.794-5.589-38-6-18.869-.547-40.12,1.965-58-2-54.033-11.984-104.339-53.477-94-156h26c-2,8.665-6,11.334-4,20,16.665-9.333,25.335-10.668,42-20,22.027,0.346,26,8,26,8s-41.336,25.334-64,38c-2,9,2,20,4,28l4,2c35.33-20,68.67-40,104-60-1.333-1.334-2.667-4.667-4-6-41-57.8-117.28-33.765-140-38-42.709-7.962-59.986-30.819-84-58,0.684-4.178-5.333-8.334,4-14S137.4,148.353,140.125,148.016Zm182,288h28a81.337,81.337,0,0,0-4,42c15.03-8.4,52.3-37.75,66-30,7.309,3.3,12,12,12,12l-74,42c1.333,7.332,2.667,4.667,4,12,0.167,8.666-15,19.333-24,10C316.862,497.831,314.908,465.655,322.125,436.016Z" class="cls-1" data-name="dbl helix copy"/></svg>