<svg id="K12_apple" data-name="K12 apple" xmlns="http://www.w3.org/2000/svg" width="600" height="600" viewBox="0 0 600 600">
  <defs>
    <style>
      .cls-1 {
        fill: #fff;
        fill-rule: evenodd;
      }
    </style>
  </defs>
  <path class="cls-1" d="M427.4,444.02c-63.769,84.686-86.785,36.694-127.4,34.091-40.612,2.6-63.628,50.6-127.4-34.091-26.934-35.769-113.179-118.854-68.3-216.23C116.691,200.915,137,155.984,212,155.984c63.156,0,68.178,26.925,82.517,35.434,0.555-12.975,1.591-27.656,3.483-41.434,3.915-28.511,25.817-44.873,28-44,5,2,28,18,28,18s-19.359,11.2-30,30a281.707,281.707,0,0,0-16.627,36.176c13.021-9.624,20.318-34.176,80.627-34.176,75,0,95.309,44.931,107.7,71.806C540.576,325.166,454.331,408.251,427.4,444.02Z"/>
</svg>
