<svg id="law" xmlns="http://www.w3.org/2000/svg" width="600" height="600" viewBox="0 0 600 600">
  <defs>
    <style>
      .cls-1 {
        fill: #1c5d73;
        fill-rule: evenodd;
      }
    </style>
  </defs>
  <path id="justice_icon_copy" data-name="justice icon copy" class="cls-1" d="M500.486,263.23c-5.872,14.148-22.511,37.341-68.5,37.341-46.2,0-60.536-23.407-64.98-37.536-3.8-12.069,2.95-18.821,2.95-18.821s21.428-36.259,38.481-65.607L395.2,186.25a10.864,10.864,0,0,1-3.086,1.152,10.907,10.907,0,0,1-9.141,1.674l-40.522-10.858c-1.881,3.074-3.427,5.233-3.427,5.233s-14.64,11.459-14.64,49.979c0,7.808,6.486,22.135,10.089,37.255,5.39,22.621,1.763,58.224-2.141,72.539-9.425,34.558-19.316,68.949-25.643,90.669,50.254,1.754,66.221,28.251,71.286,44.463,4.476,14.328-3.479,22.343-3.479,22.343l-152.54-1.281s-7.453-6.534-1.369-21.293c6.577-15.955,24.635-41.581,72.908-44.109-6.256-22-16.158-57.072-25.745-92.1-3.551-12.976-7.381-51.2-3.656-71.061,2.86-15.25,9.05-29.886,9.05-37.421,0-38.52-12.2-49.979-12.2-49.979s-1.347-2.212-2.925-5.367L217,189.076a10.906,10.906,0,0,1-9.141-1.674,10.841,10.841,0,0,1-3.086-1.152l-10.424-6.019,36.581,62.622s6.32,5.5,1.16,17.937c-5.872,14.148-22.511,37.341-68.5,37.341-46.2,0-60.536-23.407-64.98-37.536-3.8-12.069,2.95-18.821,2.95-18.821s38.348-64.89,53.268-91.314c4.915-8.7,9.944-9.467,13.948-7.758a10.881,10.881,0,0,1,6.828,1.35l39.491,22.8,41-10.987c0.277-.074.553-0.083,0.83-0.135,5.79-3.035,16.221-1.559,16.221-1.559s13.447,7.32,26.84,7.32c13.447,0,26.84-7.32,26.84-7.32s14.485-2.193,20.17,2.53l37.884,10.151,39.491-22.8a10.97,10.97,0,0,1,12.234.859c5.014,1.791,8.569,7.678,8.569,7.678l54.154,92.7S505.646,250.8,500.486,263.23ZM174.971,169.046L164.62,163.07a10.864,10.864,0,0,1-2.575-2.133L114.583,240.99H217.625Zm262.461-7.577a10.961,10.961,0,0,1-2.083,1.6l-7.18,4.145L382.983,243.43H486.025ZM298.764,144.362a28.011,28.011,0,1,1,28.012-28.011A28.011,28.011,0,0,1,298.764,144.362Z"/>
</svg>
