<svg id="LibreTexts.org_logo" data-name="LibreTexts.org logo" xmlns="http://www.w3.org/2000/svg" width="600" height="600" viewBox="0 1 600 600">
  <defs>
    <style>
      .cls-1 {
        fill: #fff;
        fill-rule: evenodd;
      }
    </style>
  </defs>
  <g id="libretexts_icon_copy" data-name="libretexts icon copy">
    <path id="LT_icon_1_color" data-name="LT icon 1 color" class="cls-1" d="M282.232,460.248l-94.563-54.662c-25.005-14.454-28.621-20.544-28.633-49.587-0.014-31.589-.033-78.914-0.046-110.238-0.012-27.731,3.266-34.147,28.559-48.754l95.23-54.995c25.32-14.622,30.9-14.511,55.355-.434l0.769,0.443L358,130s8.278-5.89,15,0c6.078,5.326,2.228,15.321,2.228,15.321l-8.94,12.53,0.483,0.279,67.01,38.735c24.761,14.314,29.01,22.217,29.022,50.308,0.013,31.259.032,77.609,0.045,108.767,0.012,28.389-3.83,35.448-28.691,49.805L340.042,460.1C314.71,474.725,306.794,474.446,282.232,460.248Zm130.224-5.9V443.638h3.815v-2.18H406.032v2.18h3.823v10.705h2.6Zm7.875,0V444.2l2.549,10.143h2.5l2.558-10.143v10.143h2.417V441.458h-3.9l-2.311,8.789-2.338-8.789h-3.894v12.885h2.417ZM433.989,320.17c0,5.682-9.444,9.469-9.444,9.469v24.619s7.555,4.419,7.555,9.469-13.221,11.363-13.221,11.363l-92.547,51.131s-5.773,3.788-11.333,3.788c-5.769,0-11.332-3.788-11.332-3.788s-78.793-47.015-90.659-54.919c-18.005-11.994-17-17.675-17-32.194s6.925-17.675,5.666-18.938-5.666-5.681-5.666-26.512a37.733,37.733,0,0,1,4.436-18.1,4.448,4.448,0,0,1,.645-2.386l39.454-55.519c3.607-5.66,5.725-9.059,10.182-12.716l112.784-69.3c3.082-1.809,5.58.4,5.58,4.939l-40.28,56.634c-4.044,6.571-7.155,13-10.821,17.013a64.861,64.861,0,0,1,6.555,2.158l101.889,52.66s3.777,1.262,3.777,7.575a7.573,7.573,0,0,1-5.666,7.575v24.619S433.989,313.542,433.989,320.17Zm-183.754-42.1-7.7,4.269c-0.913.506-.783,1.43,0.291,2.063l9.109,5.367a4.053,4.053,0,0,0,3.613.229l7.7-4.3c0.909-.508.768-1.433-0.314-2.066l-9.112-5.332A4.051,4.051,0,0,0,250.235,278.069Zm120.526,14.438c0.883-.5.7-1.427-0.414-2.057l-9.355-5.307a4.09,4.09,0,0,0-3.6-.225l-7.479,4.25a1.239,1.239,0,0,0-.38.331l-15.763,8.841c-0.9.509-.729,1.438,0.374,2.074l9.352,5.4a4.087,4.087,0,0,0,3.635.231l22.809-12.864-0.175-.1Zm-36.445-4.318-9.235-5.293a4.07,4.07,0,0,0-3.585-.224l-7.551,4.238c-0.9.5-.74,1.42,0.349,2.048l9.234,5.328a4.072,4.072,0,0,0,3.608.228l7.553-4.274C335.58,289.736,335.413,288.817,334.316,288.189Zm5.368-3.034a4.079,4.079,0,0,0,3.593.225l7.479-4.232c0.883-.5.708-1.409-0.389-2.031l-9.237-5.241a4.075,4.075,0,0,0-3.57-.221l-7.477,4.2c-0.888.5-.724,1.406,0.365,2.028Zm-21.577,12.2L308.874,292a4.066,4.066,0,0,0-3.6-.226l-7.625,4.28c-0.9.507-.756,1.433,0.332,2.068l9.231,5.382a4.07,4.07,0,0,0,3.624.23l7.627-4.316C319.363,298.913,319.2,297.985,318.107,297.35Zm-19.386-9.371c0.9-.5.752-1.419-0.331-2.045l-9.115-5.279a4.059,4.059,0,0,0-3.575-.223l-7.621,4.227c-0.905.5-.767,1.416,0.308,2.042l9.113,5.314a4.06,4.06,0,0,0,3.6.227Zm-4.029-10.332,9.117,5.261a4.065,4.065,0,0,0,3.583.224l7.549-4.221c0.891-.5.735-1.405-0.348-2.025l-9.119-5.226a4.061,4.061,0,0,0-3.56-.222l-7.547,4.186C293.472,276.121,293.617,277.027,294.692,277.647Zm16.147-8.966,9.12,5.208a4.066,4.066,0,0,0,3.568.222l7.476-4.18c0.883-.493.719-1.391-0.364-2.006l-9.122-5.174a4.069,4.069,0,0,0-3.545-.219l-7.474,4.146C309.611,267.169,309.763,268.066,310.839,268.681Zm15.991-8.88,9.123,5.157a4.074,4.074,0,0,0,3.553.22l7.4-4.14c0.874-.488.7-1.378-0.38-1.986l-9.124-5.124a4.076,4.076,0,0,0-3.531-.217l-7.4,4.106C325.6,258.3,325.754,259.192,326.83,259.8Zm19.233,9.08c-0.878.493-.708,1.392,0.382,2.008l9.238,5.223a4.084,4.084,0,0,0,3.578.223l7.406-4.191c0.874-.5.693-1.395-0.4-2.011l-9.24-5.189a4.079,4.079,0,0,0-3.555-.219Zm19.839,11.2c-0.879.5-.7,1.41,0.406,2.034l9.356,5.289a4.1,4.1,0,0,0,3.6.226l7.407-4.243c0.875-.5.682-1.413-0.429-2.037l-9.357-5.254a4.092,4.092,0,0,0-3.581-.223Zm-27.825,28.829-9.351-5.415a4.078,4.078,0,0,0-3.627-.23l-7.628,4.334c-0.905.514-.745,1.452,0.357,2.095l9.35,5.452a4.083,4.083,0,0,0,3.65.233l7.63-4.371C339.359,310.5,339.188,309.556,338.077,308.914ZM321.7,318.283l-9.348-5.47a4.076,4.076,0,0,0-3.643-.232l-7.7,4.377c-0.914.52-.762,1.467,0.34,2.117l9.347,5.507a4.078,4.078,0,0,0,3.666.235l7.706-4.414C322.975,319.882,322.811,318.933,321.7,318.283ZM302.076,308.7c0.909-.515.757-1.452-0.339-2.093l-9.229-5.4a4.064,4.064,0,0,0-3.616-.229l-7.7,4.323c-0.914.512-.773,1.448,0.315,2.089l9.227,5.436a4.063,4.063,0,0,0,3.639.233Zm-19.734-11.558c0.909-.508.768-1.433-0.314-2.066l-9.112-5.332a4.051,4.051,0,0,0-3.59-.226l-7.7,4.269c-0.913.506-.783,1.43,0.291,2.063l9.109,5.367a4.053,4.053,0,0,0,3.613.229Zm-15.733-28.149-7.621,4.227c-0.9.5-.767,1.416,0.308,2.042l9.113,5.314a4.06,4.06,0,0,0,3.6.227l7.624-4.262c0.9-.5.751-1.42-0.332-2.046l-9.115-5.279A4.059,4.059,0,0,0,266.609,268.988Zm16.214-8.994-7.547,4.186c-0.9.5-.75,1.4,0.325,2.023l9.117,5.261a4.065,4.065,0,0,0,3.583.224l7.549-4.22c0.891-.5.735-1.406-0.348-2.026l-9.119-5.226A4.061,4.061,0,0,0,282.823,259.994Zm16.058-8.906-7.474,4.146c-0.887.491-.735,1.388,0.341,2l9.12,5.208a4.066,4.066,0,0,0,3.568.222l7.476-4.18c0.883-.493.719-1.391-0.364-2.006l-9.122-5.174A4.069,4.069,0,0,0,298.881,251.088Zm15.9-8.821-7.4,4.106c-0.878.487-.719,1.375,0.357,1.984l9.123,5.157a4.074,4.074,0,0,0,3.553.22l7.4-4.14c0.874-.488.7-1.378-0.38-1.986l-9.124-5.124A4.076,4.076,0,0,0,314.784,242.267Zm28.394-3.448-9.127-5.074a4.075,4.075,0,0,0-3.515-.214L323.2,237.6c-0.87.482-.7,1.361,0.373,1.964l9.125,5.107a4.075,4.075,0,0,0,3.538.217l7.333-4.1C344.439,240.3,344.261,239.422,343.178,238.819Zm19.09,11.444-9.126-5.074a4.075,4.075,0,0,0-3.515-.214l-7.332,4.067c-0.87.482-.7,1.361,0.373,1.964l9.125,5.107a4.079,4.079,0,0,0,3.538.217l7.333-4.1C363.53,251.746,363.352,250.866,362.268,250.263Zm19.737,10.972-9.241-5.137a4.087,4.087,0,0,0-3.541-.217L361.89,260c-0.87.489-.693,1.379,0.4,1.989l9.24,5.171a4.089,4.089,0,0,0,3.563.221l7.335-4.151C383.29,262.737,383.1,261.845,382.005,261.235Zm19.985,11.111-9.358-5.2a4.1,4.1,0,0,0-3.565-.221l-7.335,4.168c-0.87.494-.682,1.4,0.422,2.014l9.357,5.237a4.1,4.1,0,0,0,3.589.223l7.335-4.2C403.3,273.867,403.1,272.964,401.99,272.346Zm11.223,19.418L315,346.683l-86.881-49.238s-13.221-9.734-13.221,3.788c0,11.767,5.666,15.15,5.666,15.15l83.1,49.238s5.884,3.787,11.332,3.787c5.868,0,11.333-3.787,11.333-3.787l86.881-49.238V291.764Zm0,41.663L315,388.346l-86.881-49.238S214.9,329.374,214.9,342.9c0,11.767,5.666,15.15,5.666,15.15l83.1,49.238s5.369,3.787,11.332,3.787c5.335,0,11.333-3.787,11.333-3.787l86.881-49.238V333.427Z"/>
  </g>
</svg>
