<svg xmlns="http://www.w3.org/2000/svg" id="workforce" width="600" height="600" viewBox="0 0 600 600"><defs><style>.cls-1{fill:#bf4000;fill-rule:evenodd}</style></defs><path id="tools_cross_copy" d="M482.126,227.12l-90.879,104.9c7.629,7.657,55.1,55.272,65.591,65.771,20.272,20.3,27.109,42.217,27.109,42.217l-46.687,46.74S416.869,478.393,396.6,458.1c-19.282-19.305-59.238-59.288-87.71-87.786l-45.6,51.942L256.928,459.1l-70.8,48.767-22.472-20.242,38.208-77.1L237.689,399.6l46.669-53.839-22.186-22.209C247.358,308.72,243.6,292.893,243.6,292.893L216.55,264.468s-20.322-13.844-33.276-10.283c-30.98,4.475-44.3,39.789-51.116,68.233-4.259,0-13.139,2.537-13.139,2.537s-40.357-83.163,49.7-173.39c11.383-11.4,40.662,1.508,40.662,1.508s5.392-2.136,12.048-12.062c2.536-7.086-11.7-17.974-7.53-22.616C261.308,65.684,266.609,80.7,266.609,80.7l55.723,55.787s1.817,7.872-7.53,19.6c-7.818,9.81-22.348,25.278-31.626,34.678-4.267,4.324-9.037-5.277-15.061-6.031s-16.942,12.439-16.566,16.585,12.138,18.046,12.138,18.046l26.6,26.787s14.5,2.241,28.646,14.029l80.129-92.488s35-35.818,69.922-7.622C506.993,190.762,482.126,227.12,482.126,227.12Zm-46.121-53.431a9.762,9.762,0,0,0-13.818.947l-103.5,118.383a9.871,9.871,0,0,0,.971,13.881,9.762,9.762,0,0,0,13.818-.946l103.5-118.383A9.873,9.873,0,0,0,436.005,173.689Zm30.019,26.256a9.762,9.762,0,0,0-13.818.946L348.7,319.274a9.873,9.873,0,0,0,.971,13.882,9.761,9.761,0,0,0,13.818-.947L467,213.826A9.871,9.871,0,0,0,466.024,199.945Z" class="cls-1" data-name="tools cross copy"/></svg>