<svg xmlns="http://www.w3.org/2000/svg" id="biz" width="600" height="600" viewBox="0 0 600 600"><defs><style>.cls-1{fill:#fff;fill-rule:evenodd}</style></defs><path id="_copy" d="M312.834,550.682c11.693,0,11.693-.3,23.388-0.3a7.684,7.684,0,0,0,7.621-7.761c0-16.037.364-16.037,0.364-32.067a4.871,4.871,0,0,1,3.552-4.875A155.159,155.159,0,0,0,373.1,496.79c8.35-3.905,15.709-9.048,22.714-14.255a118.37,118.37,0,0,0,19.745-18.057,111.886,111.886,0,0,0,14.794-22.316,114.052,114.052,0,0,0,8.791-25.252,128.947,128.947,0,0,0,3.606-29.812,133.575,133.575,0,0,0-1.6-21.264,109.956,109.956,0,0,0-6.743-23.624c-3.159-7.893-6.422-15.47-11.069-22.006a117.839,117.839,0,0,0-16.531-18.362A154.871,154.871,0,0,0,387.1,287.021a226.464,226.464,0,0,0-21.162-12.692c-7.358-3.774-15.153-6.622-22.621-9.858-7.7-3.339-15.093-7.076-22.506-10.088-9.767-3.971-18.716-7.391-26.527-10.986a135.192,135.192,0,0,1-24.79-14.255c-9.155-6.9-14.788-14.053-14.788-23.395,0-8.1,4.249-14.374,10.115-19.249a52.312,52.312,0,0,1,19.805-10.159,88.591,88.591,0,0,1,22.256-2.685,99.273,99.273,0,0,1,24.011,2.854,81.648,81.648,0,0,1,22.431,9.025c8.012,4.81,13.639,10.894,18.411,15.612a7.631,7.631,0,0,0,5.392,2.134,8.027,8.027,0,0,0,5.709-2.32c7.963-8.089,7.957-8.094,15.921-16.183s7.68-8.367,15.644-16.46,7.952-8.1,15.916-16.189a8.266,8.266,0,0,0,2.4-5.763,7.1,7.1,0,0,0-2.107-5.114,220.033,220.033,0,0,0-18.248-15.884A170.226,170.226,0,0,0,392.4,111.743,166.519,166.519,0,0,0,370.642,101.2a173.155,173.155,0,0,0-23-7.5,4.6,4.6,0,0,1-3.448-4.674c0-15.622-.055-15.622-0.055-31.244a8.219,8.219,0,0,0-7.9-8.094c-11.695,0-11.695.256-23.39,0.256s-11.694.517-23.389,0.517-11.694-.25-23.389-0.25a7.544,7.544,0,0,0-7.647,7.571c0,16.836-.055,16.836-0.055,33.673a4.957,4.957,0,0,1-3.683,4.684,146.4,146.4,0,0,0-23.65,9.913A131.074,131.074,0,0,0,209.6,120.12a118.228,118.228,0,0,0-17.86,18.357,108.076,108.076,0,0,0-21.989,45.9A109.15,109.15,0,0,0,167.8,206.52a124.386,124.386,0,0,0,3.2,29.316,99.984,99.984,0,0,0,8.976,24.528,103.816,103.816,0,0,0,15.562,21.02,133.777,133.777,0,0,0,19.963,16.831,197.815,197.815,0,0,0,22.044,14.036c7.724,4.118,15.617,8,23.526,11.451,8.159,3.567,16.412,6.6,24.25,9.777s15.339,5.615,22.006,8.557a224.19,224.19,0,0,1,20.894,10.975c7.871,4.478,14.261,8.912,18.814,14.015,5.523,6.2,8.677,13.09,8.677,21.4,0,10-3.573,17.4-8.759,22.829-5.784,6.062-13.705,10-21.6,12.178a96.963,96.963,0,0,1-24.822,3.116,134.124,134.124,0,0,1-23.433-2.489,120.788,120.788,0,0,1-22.622-6.356,140.4,140.4,0,0,1-21.352-9.9,218.251,218.251,0,0,1-19.478-13.3,8.209,8.209,0,0,0-4.929-1.624,8.033,8.033,0,0,0-6.226,2.86c-7.212,8.749-7.06,8.879-14.271,17.627s-7.413,8.589-14.631,17.338-6.683,9.189-13.9,17.942a7.474,7.474,0,0,0-1.8,4.75,6.839,6.839,0,0,0,2.724,5.387c5.5,4.374,12.5,10.011,21.281,15.807,6.684,4.406,14.015,9.548,22.611,13.927a225.232,225.232,0,0,0,24.385,10.552c7.9,2.9,16.543,4.951,25.59,7.075a5.485,5.485,0,0,1,4.26,4.924c0,15.774-.054,15.774-0.054,31.549a7.47,7.47,0,0,0,7.4,7.729c11.689,0,11.689.207,23.378,0.207s11.695,0.126,23.389.126Z" class="cls-1" data-name="$ copy"/></svg>