<svg xmlns="http://www.w3.org/2000/svg" width="42.667" height="26.667" preserveAspectRatio="xMidYMid meet" version="1.0" viewBox="0 0 32 32"><metadata>Created by potrace 1.16, written by Peter Selinger 2001-2019</metadata><g fill="#127BC4" stroke="none"><path d="M72 300 c-48 -29 -73 -76 -70 -130 2 -33 7 -46 21 -48 14 -3 17 4 17 33 0 48 24 91 60 110 34 18 83 19 111 4 19 -10 20 -11 3 -23 -15 -11 -12 -14 29 -24 66 -17 67 -17 56 26 -17 65 -19 68 -28 53 -7 -10 -14 -10 -39 3 -43 22 -120 20 -160 -4z" transform="translate(0.000000,32.000000) scale(0.100000,-0.100000)"/><path d="M270 165 c0 -73 -51 -125 -123 -125 -30 0 -89 29 -59 30 26 0 10 20 -25 29 -58 17 -64 15 -57 -17 14 -55 25 -77 33 -64 6 10 14 9 37 -3 16 -8 52 -15 79 -15 92 0 158 64 153 150 -2 33 -7 46 -20 48 -15 3 -18 -4 -18 -33z" transform="translate(0.000000,32.000000) scale(0.100000,-0.100000)"/></g></svg>