<svg id="esp" xmlns="http://www.w3.org/2000/svg" width="21" height="21" viewBox="0 0 600 600">
  <defs>
    <style>
      .cls-1 {
        fill: #d77b00;
        fill-rule: evenodd;
      }
    </style>
  </defs>
  <path id="_sí_copy" data-name="¡sí! copy" class="cls-1" d="M84.1,454.133h47.958l22.286-137.809H120.207Zm82.022-204.81q-5.854-5.217-16.15-5.219-12.694,0-20.312,7.688t-7.617,19.677q0,9.875,5.713,15.234t15.3,5.36q13.257,0,21.088-7.547t7.828-20.523Q171.974,254.545,166.12,249.323ZM302.167,309.06q-8.463-13.611-25.531-24.9-16.223-10.579-20.876-17a24.906,24.906,0,0,1-4.655-15.023q0-10.437,7.476-16.785t19.183-6.347q18.62,0,40.624,10.438l15.375-32.866q-25.39-13.965-56-13.964-21.018,0-37.167,7.969a58.927,58.927,0,0,0-24.9,22.287,61.1,61.1,0,0,0-8.746,32.513,57.962,57.962,0,0,0,7.9,29.48q7.9,13.683,27.365,27.646,13.964,10.442,17.491,14.388a30.2,30.2,0,0,1,5.43,8.534,27.6,27.6,0,0,1,1.9,10.649q0,10.44-8.886,16.433t-24.684,6q-23.274,0-50.5-15.234v38.649q19.042,12.695,50.215,12.7,35.685,0,56.563-17.138t20.876-46.619Q310.63,322.672,302.167,309.06ZM380.734,401.8l44.008-206.221H381.721L337.712,401.8h43.022Zm7.9-222.724h29.48a343.688,343.688,0,0,0,27.364-22.358q15.234-13.61,21.723-21.51v-2.4H419.947q-20.173,30.329-31.314,42.739v3.527Zm125.82,16.5H466.494L444.349,333.391h33.994ZM432.5,400.321q5.783,5.29,16.08,5.29,12.554,0,20.312-7.617t7.758-19.889q0-9.732-5.783-15.092t-15.375-5.36q-13.683,0-21.229,7.617t-7.546,20.311Q426.717,395.033,432.5,400.321Z"/>
</svg>
