<svg id="geo" xmlns="http://www.w3.org/2000/svg" width="21" height="21" viewBox="0 0 600 600">
  <defs>
    <style>
      .cls-1 {
        fill: #e5a800;
        fill-rule: evenodd;
      }
    </style>
  </defs>
  <path class="cls-1" d="M300,136A164,164,0,1,1,136,300,164,164,0,0,1,300,136ZM228,424l-4-14,6-12,12-10,8-8,8-12,10-4,10-8,6-10v-6l6-8,4-8-4-10-8-4h-6l-12-18-10-12-14-4-4-6-8-2-6-4-4-2-4,6-8,2-6-4-4-4V250l-2-4,4-6,2-2-2-4-4,2-6-2-2-6,4-10,12-6,12-2,4,6,2,8,4,2,2-2v-8l2-6,14-6,4-6,6,2,6-4h14l6-4,2-4h2l4,4,6-4,2-6-4-2,4-6-8-8-8,4-4-2-10,10-4-2,2-8,10-8,4,2,4-2h6l6,4,10-10H284l-30,8-34,18-24,18-16,18-6,12-2,6,8,8,6,2,2,8,4,6v8l10,8-2,6-4,8-6,6-2,12,4,14,12,12,4,12,2,8-4,16,2,8-2,12v6l4,2-2,12,8,10Zm158-6,24-22,24-34,12-36V294l-2-28-6-14-10,2-14-10-10-2-8-2H384l-4,2h-6l-4,8-8,4-10,8,2,8-2,10-2,6v12l12,12,14,10h22l4,2h2l2,6-2,10-2,8,2,6,2,10-4,8-8,8-2,8,4,10ZM306,154h16l12,6-4,2-6,2-14,18-6-8-2-8Zm20,16h4l2-2h4l2,4-2,4-4,2-6-2v-6Zm50,4,10,8-10,2-2-2Zm-4,14,6,6,6,8-2,6h-6l-2-4-2-8-2,2-2,2-4-4,4-4v-4h4ZM216,232l8,4h8l2,4-14-2-10-2Zm12,16,8-6,6,4,4,4h-6l-2-2H228Z"/>
</svg>
