<svg id="hum" xmlns="http://www.w3.org/2000/svg" width="21" height="21" viewBox="0 0 600 600">
  <defs>
    <style>
      .cls-1 {
        fill: #00bc94;
        fill-rule: evenodd;
      }
    </style>
  </defs>
  <path id="plato_copy_2" data-name="plato copy 2" class="cls-1" d="M329.751,345.34l2.091-79.371-8.366-6.266-12.549,8.354-10.457-6.266,4.183-25.064,10.457,2.089s-2.264,10.92,0,14.62c1.212,1.979,5.6.566,9.046,0.283,4.457-.367,5.667,2.666,10,2s0.091,0.061.248-2.672c0.344-5.977-.991-11.752-0.248-13.328,1.689-3.584,12,0,12,0s-4.614,10.867-2,14-1.137,5.044,2,4,8.693-14.726,8.693-14.726l10.458-16.71-2.092-4.177s-20.218-1.393-25.1,0-9.063-5.57-4.183-8.355,4.88-6.962,6.275-10.444-8.367-10.443-8.367-10.443-18.163-11.213-8.366-18.8c14.577-7.723,57.294,5.375,50.2-22.975-0.7-2.785-16.733-8.355-16.733-8.355s-1.045-3.133,8.367-4.178,55.134-1.914-8.367-50.129c-6.953-5.28-30.675-8.355-43.921-8.355s-33.464-7.659-64.837,12.532-31.372,18.8-43.921,33.419-23.7,29.938-23.007,35.508-0.7,15.317,0,22.976-12.549,14.621-12.549,14.621-9.063,16.013-8.366,22.976-3.486,29.938,0,33.419,4.88,11.14,2.092,14.621-4.183,15.317,2.091,18.8,7.669,21.583,12.549,22.975,15.338,11.14,18.824,14.621,2.788,18.8,2.091,25.065-5.577,23.672-4.183,27.153,10.458,7.659,10.458,10.444-2.092,17.405,0,20.887,2.788,13.228,6.274,16.709,4.183,5.57,4.183,12.533,2.789,16.709,6.275,18.8,4.88,8.355,6.274,12.532,0.7,14.621,6.275,18.8S238.422,499.9,244,499.9s7.669-2.088,10.458,2.089-6.972-8.355-6.275-14.621,6.275-10.444,6.275-10.444,4.88,0.7,6.274-8.354a32.528,32.528,0,0,0-2.091-16.71s10.457,14.621,8.366,20.887-10.458,12.532-8.366,16.71,0,1.392,2.091,8.355a45.127,45.127,0,0,0,6.275,12.532s11.87,5.172,17.15-.629c2.511-2.759,1.677-7.231,2-12a62.512,62.512,0,0,1,1.765-10.347,33.124,33.124,0,0,0-4.183-12.532c-2.625-4.194-3.7-16.59,1.877-9.628s0.559-1.872.214-2.9c-1.394-4.177-3.673-8.93-3.673-16.588s4.371-11.261,3.673-8.476,5.987,39.493,12.549,43.863c6.275,4.177-9.063-2.089-4.183,12.532s4.9,16.511,13.961,22.081,11.212,6.7,14,6c22.31-5.57,1.32-22.511,1.32-28.081,0-6.962-3.228-11.653-5.32-17.919s-3.046-19.678-3.046-19.678-2.813-25,3.046-20.322c4.608,3.682-2.022-1.206,8,20,5.534,11.708,3.651,24.842,8,30,5.423,6.43,5.508,20.695,10,22,4.157,1.206,12.382-5.539,16-14,3.875-9.063,2.656-18.517,2-22-2.352-12.493-3.124-10.108-5.216-15.678s-2.788-8.355-6.274-14.621-2.091-16.709-2.091-16.709-10.458-13.229-12.55-12.533c-1.5.5,6.351-5.933,8.366-12.532,1.888-6.176-2.091-12.532-2.091-12.532s-16.732-2.089-12.549-2.089-15.589,4.286-18.824,4.178c-11.262-.378-16.732,20.887-16.732,20.887s-0.884,12.809-2.563,13.887a24.123,24.123,0,0,0-3.711,2.822V408l6.274-16.71,4.183-8.355a92.083,92.083,0,0,0,14.641,0c6.274-.7,16.732-6.266,20.915-4.177s12.549,2.089,12.549,2.089l4.183-6.266s-4.183-9.051-6.275-10.444-10.457-4.177-10.457-4.177H323.476l-14.64-6.266-8.366-6.267s9.76-5.57,14.64-2.088,8.366,10.443,8.366,10.443-0.7,3.481,4.183,0S329.751,345.34,329.751,345.34Zm-92.026-68.928c4.591-20.94,27.3-16.134,37.647-14.621,8.306,1.216,24.4,4.526,27.189,6.266s11.5-.348,8.366,8.355c-6.668,18.5-13.568,25.3-20.771,29.307-7.094,3.945-14.491,5.24-21.059,4.113a22.781,22.781,0,0,1-12.549-6.266,19.686,19.686,0,0,1,8.366-6.267c5.628-2.263,14.116-2.777,16.732-4.177,6.383-3.415,14.641-10.444,14.641-10.444a31.192,31.192,0,0,0-8.366-8.354c-17.353-11.185-31.935-6.031-43.92,1.307C240.027,278.065,236.87,280.314,237.725,276.412Zm112.941,25.065,10.458,8.355s14.355,1.361,23.006-2.089c7.789-3.106,9.8-10.553,12.549-18.8,0.837-2.507-4.183,0-4.183,0s-15.456,4-18.823,4.177c-15.065.784-16.733-4.177-16.733-4.177a75.162,75.162,0,0,0,25.1,0c5.691-1.1,12.549-6.267,12.549-6.267s2.595-7.244-2.092-10.443c-4.823-3.292-16.285-4.963-24.34-4.516-4.738.263-15.53,3.524-19.581,8.693-4.031,5.142-2.092,14.621-2.092,14.621Z"/>
</svg>
