<svg xmlns="http://www.w3.org/2000/svg" id="med" width="21" height="21" viewBox="0 0 600 600"><defs><style>.cls-1{fill:#e52817;fill-rule:evenodd}</style></defs><path id="cross_copy" d="M478.2,363H363V478.2a21.6,21.6,0,0,1-21.6,21.6H258.6A21.6,21.6,0,0,1,237,478.2V363H121.8a21.6,21.6,0,0,1-21.6-21.6V258.6A21.6,21.6,0,0,1,121.8,237H237V121.8a21.6,21.6,0,0,1,21.6-21.6h82.8A21.6,21.6,0,0,1,363,121.8V237H478.2a21.6,21.6,0,0,1,21.6,21.6v82.8A21.6,21.6,0,0,1,478.2,363Z" class="cls-1" data-name="cross copy"/></svg>