<svg id="phys" xmlns="http://www.w3.org/2000/svg" width="21" height="21" viewBox="0 0 600 600">
  <defs>
    <style>
      .cls-1 {
        fill: #841fcc;
        fill-rule: evenodd;
      }
    </style>
  </defs>
  <path id="atom_copy" data-name="atom copy" class="cls-1" d="M462.177,266c24.538-31.8,35.722-68.333,16.269-79.152-42.322-23.535-117.495,5.4-117.495,5.4s-15.63-7.011-25.307-14.391v-1.8c26.92-7.18,79.054-23.752,119.3-19.788,52.362,5.158,85.3,40.2,23.5,125.923ZM353.72,152.672a30.655,30.655,0,0,1-30.729-30.581,30.33,30.33,0,0,1,6.558-18.842c11.683,12.147-32.809-49.27-68.017,24.239-15.019,31.356-32.232,77.853-34.345,183.488l-5.423-5.4L205.5,294.786c-0.718-157.123,51-214.368,84.958-224.863,23.369-7.221,46.9,7.057,60.607,21.72,0.878-.075,1.762-0.134,2.66-0.134A30.582,30.582,0,1,1,353.72,152.672ZM274.185,368.54s2.29,0.6-25.307,12.593C209.148,361.855,56.609,250.7,104.269,181.455c25.767-37.439,84.5-24.324,95.8-23.386v1.8l-5.422,19.788c-50.671-3.05-74.591-.384-75.92,25.184-1.275,24.528,16.433,59.352,59.651,97.141C212.493,331.808,274.185,368.54,274.185,368.54ZM88,350.551a30.73,30.73,0,1,1,31.572,30.539c-3.69,20.857-2.493,32.011,24.464,37.82,43.677,9.411,107.795-9.589,162.686-35.978,45.514-21.881,76.564-46.032,103.034-66.56a45.035,45.035,0,0,1,18.077,16.19s-48.212,34.046-59.652,41.375C296.315,419.982,183.865,462.556,125.96,436.9c-21.511-9.532-36.421-26.192-28.027-63.88A30.4,30.4,0,0,1,88,350.551ZM254.3,454.888s9.559,22.451,16.269,32.38c7.941,11.751,22.791,26.986,39.767,21.587,20.565-6.54,43.934-40.067,57.844-104.337,7.832-5.4,27.114-17.989,27.114-17.989s-9.663,50.34-14.461,62.962c-10.358,27.251-27.709,59.283-50.613,73.755-48.29,30.511-86.319-25.624-97.611-62.962C228.527,460.284,254.3,454.888,254.3,454.888Zm97.612-155.6a49.711,49.711,0,1,1-49.71-49.47A49.591,49.591,0,0,1,351.913,299.283ZM436.871,402.72c10.94,0,21.669,7.621,27.114,16.19,35.41-10.662,29.355-43.35,0-82.75-35.479-47.62-125.069-113.723-200.646-136.716l7.231-23.386c81.9,35.029,161.791,78.742,211.491,145.711C523.009,376.945,523.167,427.305,467.6,442.3c-2.769,14.059-15.792,21.587-30.729,21.587A30.581,30.581,0,1,1,436.871,402.72Z"/>
</svg>
