<svg xmlns="http://www.w3.org/2000/svg" width="321" height="356" viewBox="0 0 321 356" version="1.1"><path d="M 0 178.003 L 0 356.006 160.750 355.753 L 321.500 355.500 321.753 177.750 L 322.006 0 161.003 0 L 0 0 0 178.003 M 0.489 178.500 C 0.489 276.400, 0.606 316.302, 0.750 267.171 C 0.893 218.040, 0.893 137.940, 0.750 89.171 C 0.606 40.402, 0.489 80.600, 0.489 178.500 M 208 6.296 C 205.525 7.641, 200.146 10.824, 196.046 13.370 C 191.946 15.917, 188.213 18, 187.750 18 C 187.287 18, 182.541 15.863, 177.204 13.250 C 168.181 8.833, 166.959 8.500, 159.790 8.500 C 152.389 8.500, 151.648 8.723, 141.290 14.075 C 128.132 20.874, 34.805 74.756, 26.641 80.268 C 18.306 85.894, 13.435 91.291, 10.794 97.826 L 8.500 103.500 8.195 172.500 C 8.003 216.054, 8.271 244.354, 8.922 249.238 C 10.643 262.143, 15.546 269.257, 28.378 277.465 C 42.193 286.302, 141.984 343.226, 146.904 345.075 C 158.068 349.272, 167.137 348.493, 179.457 342.281 C 189.612 337.160, 288.687 279.641, 294.674 275.391 C 302.319 269.963, 306.384 265.120, 309.270 258 L 311.500 252.500 311.500 179 C 311.500 105.624, 311.496 105.490, 309.292 99.654 C 306.672 92.717, 301.796 86.482, 295.257 81.707 C 292.641 79.796, 274.300 68.896, 254.500 57.485 C 234.700 46.074, 217.894 36.175, 217.153 35.486 C 216.038 34.451, 216.606 33.137, 220.444 27.867 C 225.915 20.355, 226.640 18.080, 225.148 13.100 C 222.709 4.960, 215.630 2.152, 208 6.296 M 156.500 46.982 C 117.744 70.760, 98.456 83.161, 96.238 85.726 C 88.368 94.830, 49.899 150.645, 47.882 155.886 C 43.903 166.224, 44.449 187.241, 48.887 194.578 C 50.607 197.422, 50.589 197.608, 48.115 202.376 C 46.071 206.317, 45.502 209.077, 45.170 216.663 C 44.459 232.906, 47.518 238.568, 62.305 248.389 C 81.046 260.835, 157.188 305.945, 160.507 306.567 C 162.467 306.935, 165.478 306.954, 167.198 306.610 C 171.196 305.811, 273.393 249.449, 277.738 245.646 C 281.991 241.926, 281.927 238.994, 277.500 234.567 L 274 231.067 274.006 218.783 L 274.013 206.500 276.921 204.846 C 284.137 200.740, 284.499 195, 277.925 188.931 L 274 185.307 274 173.518 C 274 162.228, 274.106 161.631, 276.500 159.412 C 279.510 156.623, 279.865 151.263, 277.250 148.115 C 275.478 145.981, 174.889 93.512, 170.422 92.391 C 168.011 91.786, 167.168 89.632, 168.919 88.550 C 169.424 88.238, 171.603 84.920, 173.761 81.177 C 175.919 77.434, 186.588 61.854, 197.470 46.555 C 208.352 31.255, 217.476 17.894, 217.746 16.863 C 218.276 14.837, 216.452 11.996, 214.628 12.006 C 214.007 12.009, 187.850 27.749, 156.500 46.982 M 176.235 112.266 C 173.889 113.445, 172.123 114.870, 172.311 115.433 C 172.806 116.918, 181.171 121.829, 183.364 121.921 C 185.489 122.011, 193 118.043, 193 116.830 C 193 116.162, 181.639 109.870, 180.779 110.062 C 180.625 110.096, 178.581 111.088, 176.235 112.266 M 159.753 121.358 C 157.692 122.536, 156.134 123.887, 156.290 124.361 C 156.446 124.834, 159.120 126.634, 162.232 128.361 L 167.890 131.500 172.445 129.021 C 174.950 127.657, 177 126.204, 177 125.791 C 177 124.694, 166.763 119.001, 165 119.118 C 164.175 119.172, 161.814 120.181, 159.753 121.358 M 194.750 124.068 C 192.688 125.157, 191 126.424, 191 126.885 C 191 127.345, 193.715 129.168, 197.033 130.937 L 203.065 134.152 207.533 131.534 C 209.990 130.094, 211.999 128.597, 211.998 128.208 C 211.994 127.222, 201.798 121.990, 199.984 122.044 C 199.168 122.069, 196.813 122.979, 194.750 124.068 M 143.761 130.294 C 141.704 131.507, 140.146 132.887, 140.298 133.361 C 140.450 133.834, 143.120 135.634, 146.232 137.361 L 151.890 140.500 156.445 138.021 C 158.950 136.657, 160.994 135.082, 160.986 134.521 C 160.967 133.196, 151.527 127.987, 149.249 128.044 C 148.287 128.069, 145.817 129.081, 143.761 130.294 M 179.926 132.430 C 177.537 133.708, 175.458 135.146, 175.307 135.627 C 174.926 136.833, 184.514 142, 187.132 142 C 189.544 142, 196 138.311, 196 136.933 C 196 136.436, 193.361 134.696, 190.135 133.068 L 184.269 130.107 179.926 132.430 M 214.500 134.991 C 212.850 136.078, 211.500 137.449, 211.500 138.038 C 211.500 138.626, 214.010 140.498, 217.077 142.197 L 222.654 145.287 227.327 142.548 C 229.898 141.042, 231.743 139.394, 231.429 138.886 C 230.560 137.479, 221.305 132.999, 219.283 133.007 C 218.302 133.010, 216.150 133.903, 214.500 134.991 M 127.735 139.228 C 125.664 140.428, 124.106 141.818, 124.272 142.316 C 124.438 142.814, 127.082 144.617, 130.148 146.323 L 135.723 149.425 140.362 146.964 C 142.913 145.611, 144.994 144.053, 144.986 143.502 C 144.967 142.203, 135.529 136.993, 133.249 137.023 C 132.287 137.036, 129.806 138.028, 127.735 139.228 M 163.232 141.577 C 160.885 142.983, 159.202 144.518, 159.492 144.987 C 160.395 146.449, 169.158 151, 171.069 151 C 173.204 151, 180 147.176, 180 145.975 C 180 145.085, 169.837 138.994, 168.378 139.009 C 167.895 139.015, 165.580 140.170, 163.232 141.577 M 199.250 143.566 C 196.912 144.967, 195 146.475, 195 146.917 C 195 147.360, 197.715 149.168, 201.033 150.937 L 207.065 154.152 211.533 151.534 C 213.990 150.094, 216 148.589, 216 148.189 C 216 147.560, 204.891 140.984, 203.873 141.009 C 203.668 141.015, 201.588 142.165, 199.250 143.566 M 233.601 146.458 L 229.701 148.854 234.530 151.917 C 241.520 156.350, 242.516 156.474, 247.531 153.535 C 249.989 152.094, 252 150.719, 252 150.478 C 252 149.501, 241.358 144.020, 239.500 144.041 C 238.400 144.053, 235.745 145.141, 233.601 146.458 M 111.686 148.101 C 109.588 149.208, 108.047 150.641, 108.262 151.286 C 108.746 152.738, 116.955 157.813, 119 157.924 C 121.211 158.044, 129.055 153.664, 128.674 152.523 C 128.164 150.993, 119.729 146.161, 117.500 146.123 C 116.400 146.104, 113.784 146.994, 111.686 148.101 M 147.815 150.035 C 145.788 151.105, 143.857 152.423, 143.523 152.963 C 142.735 154.237, 151.837 159.956, 154.693 159.981 C 157.104 160.002, 164 156.292, 164 154.975 C 164 154.064, 153.786 147.973, 152.378 148.044 C 151.895 148.069, 149.842 148.964, 147.815 150.035 M 183.578 152.266 C 181.421 153.495, 179.494 154.992, 179.296 155.594 C 179.099 156.196, 181.666 158.142, 185.001 159.920 L 191.065 163.152 195.533 160.534 C 197.990 159.094, 200 157.547, 200 157.097 C 200 156.410, 188.953 149.967, 187.860 150.016 C 187.662 150.025, 185.735 151.038, 183.578 152.266 M 218.250 155.115 C 216.463 156.260, 215 157.569, 215 158.025 C 215 159.003, 225.224 165, 226.892 165 C 228.833 165, 236.108 159.983, 235.527 159.044 C 234.529 157.429, 225.782 153, 223.624 153.017 C 222.456 153.026, 220.037 153.970, 218.250 155.115 M 94.753 157.358 C 92.692 158.536, 91.004 159.799, 91.003 160.164 C 90.999 161.184, 100.828 167, 102.555 167 C 104.391 167, 111.630 163.408, 112.442 162.093 C 113.173 160.911, 102.899 154.963, 100.378 155.108 C 99.345 155.168, 96.814 156.181, 94.753 157.358 M 131.250 159.259 C 128.912 160.433, 127 161.918, 127 162.558 C 127 163.198, 129.588 165.094, 132.750 166.771 L 138.500 169.820 143.250 167.391 C 145.863 166.055, 148 164.563, 148 164.076 C 148 163.159, 137.617 156.952, 136.265 157.062 C 135.844 157.096, 133.588 158.085, 131.250 159.259 M 166.762 161.686 C 161.298 164.727, 161.455 165.213, 169.274 169.431 L 174.707 172.362 179.353 169.639 C 181.909 168.141, 184 166.589, 184 166.189 C 184 165.551, 172.845 158.961, 171.873 159.024 C 171.668 159.038, 169.368 160.235, 166.762 161.686 M 194.654 168.489 C 188.689 171.955, 183.366 175.234, 182.824 175.776 C 181.713 176.887, 191.574 183, 194.475 183 C 197.013 183, 220.099 169.798, 219.693 168.579 C 219.100 166.800, 210.625 162.156, 208 162.173 C 206.625 162.181, 200.620 165.024, 194.654 168.489 M 114.209 168.698 C 109.221 171.601, 109.472 172.306, 116.939 176.371 L 121.913 179.078 126.994 176.503 C 129.788 175.087, 131.800 173.485, 131.465 172.944 C 130.658 171.637, 120.777 165.994, 119.500 166.109 C 118.950 166.159, 116.569 167.324, 114.209 168.698 M 150.675 170.765 C 148.104 172.179, 146 173.606, 146 173.935 C 146 174.264, 148.503 176.030, 151.562 177.859 C 157.572 181.454, 159.182 181.472, 164.799 178.005 C 168.646 175.632, 168.352 174.763, 162.682 171.747 C 155.805 168.090, 155.575 168.071, 150.675 170.765 M 213.500 196.004 C 187.100 210.813, 164.876 222.946, 164.114 222.965 C 163.352 222.984, 142.482 211.502, 117.736 197.449 C 92.990 183.396, 71.525 171.655, 70.035 171.357 C 66.207 170.591, 63.999 173.143, 64.006 178.321 C 64.014 184.533, 65.650 189.305, 68.744 192.137 C 70.260 193.525, 90.848 206.099, 114.496 220.080 L 157.492 245.500 163.996 245.500 L 170.500 245.500 216.247 219.500 L 261.993 193.500 261.997 181.250 C 261.998 174.512, 261.887 169.018, 261.750 169.040 C 261.613 169.061, 239.900 181.196, 213.500 196.004 M 133.750 180.220 C 131.688 181.415, 130 182.754, 130 183.195 C 130 184.404, 139.241 189.959, 141.290 189.981 C 143.306 190.002, 150.562 186.518, 151.432 185.110 C 152.113 184.008, 141.781 177.990, 139.265 178.023 C 138.294 178.036, 135.813 179.024, 133.750 180.220 M 170.597 182.266 C 168.450 183.495, 166.694 184.950, 166.694 185.500 C 166.694 186.050, 169.260 188.026, 172.396 189.891 L 178.098 193.282 182.776 190.710 C 185.349 189.295, 187.582 187.754, 187.738 187.286 C 188.053 186.342, 177.499 179.990, 175.660 180.016 C 175.022 180.025, 172.744 181.038, 170.597 182.266 M 154.196 191.598 C 151.829 193.017, 150.060 194.680, 150.265 195.295 C 150.470 195.910, 153.167 197.783, 156.258 199.456 L 161.879 202.500 166.521 200 C 169.074 198.625, 171.356 197.198, 171.592 196.829 C 172.040 196.128, 160.886 188.993, 159.369 189.009 C 158.891 189.015, 156.563 190.180, 154.196 191.598 M 212.500 238.135 C 164.911 264.867, 164.474 265.086, 161.500 263.674 C 159.850 262.891, 138.951 251.169, 115.058 237.625 C 87.180 221.822, 70.623 213, 68.843 213 C 67.125 213, 65.677 213.736, 65.035 214.934 C 63.283 218.209, 63.852 225.283, 66.250 230.029 C 68.149 233.786, 69.983 235.355, 78 240.081 C 83.225 243.161, 103.192 254.967, 122.372 266.318 C 141.552 277.668, 158.764 287.240, 160.622 287.589 C 162.480 287.937, 165.463 287.948, 167.250 287.612 C 169.037 287.276, 190.975 275.406, 216 261.233 L 261.500 235.466 261.781 223.233 C 261.935 216.505, 261.710 211.039, 261.281 211.086 C 260.851 211.133, 238.900 223.305, 212.500 238.135" stroke="none" fill="#fafbfb" fill-rule="evenodd"/><path d="M 208 6.296 C 205.525 7.641, 200.146 10.824, 196.046 13.370 C 191.946 15.917, 188.213 18, 187.750 18 C 187.287 18, 182.541 15.863, 177.204 13.250 C 168.181 8.833, 166.959 8.500, 159.790 8.500 C 152.389 8.500, 151.648 8.723, 141.290 14.075 C 128.132 20.874, 34.805 74.756, 26.641 80.268 C 18.306 85.894, 13.435 91.291, 10.794 97.826 L 8.500 103.500 8.195 172.500 C 8.003 216.054, 8.271 244.354, 8.922 249.238 C 10.643 262.143, 15.546 269.257, 28.378 277.465 C 42.193 286.302, 141.984 343.226, 146.904 345.075 C 158.068 349.272, 167.137 348.493, 179.457 342.281 C 189.612 337.160, 288.687 279.641, 294.674 275.391 C 302.319 269.963, 306.384 265.120, 309.270 258 L 311.500 252.500 311.500 179 C 311.500 105.624, 311.496 105.490, 309.292 99.654 C 306.672 92.717, 301.796 86.482, 295.257 81.707 C 292.641 79.796, 274.300 68.896, 254.500 57.485 C 234.700 46.074, 217.894 36.175, 217.153 35.486 C 216.038 34.451, 216.606 33.137, 220.444 27.867 C 225.915 20.355, 226.640 18.080, 225.148 13.100 C 222.709 4.960, 215.630 2.152, 208 6.296 M 156.500 46.982 C 117.744 70.760, 98.456 83.161, 96.238 85.726 C 88.368 94.830, 49.899 150.645, 47.882 155.886 C 43.903 166.224, 44.449 187.241, 48.887 194.578 C 50.607 197.422, 50.589 197.608, 48.115 202.376 C 46.071 206.317, 45.502 209.077, 45.170 216.663 C 44.459 232.906, 47.518 238.568, 62.305 248.389 C 81.046 260.835, 157.188 305.945, 160.507 306.567 C 162.467 306.935, 165.478 306.954, 167.198 306.610 C 171.196 305.811, 273.393 249.449, 277.738 245.646 C 281.991 241.926, 281.927 238.994, 277.500 234.567 L 274 231.067 274.006 218.783 L 274.013 206.500 276.921 204.846 C 284.137 200.740, 284.499 195, 277.925 188.931 L 274 185.307 274 173.518 C 274 162.228, 274.106 161.631, 276.500 159.412 C 279.510 156.623, 279.865 151.263, 277.250 148.115 C 275.478 145.981, 174.889 93.512, 170.422 92.391 C 168.011 91.786, 167.168 89.632, 168.919 88.550 C 169.424 88.238, 171.603 84.920, 173.761 81.177 C 175.919 77.434, 186.588 61.854, 197.470 46.555 C 208.352 31.255, 217.476 17.894, 217.746 16.863 C 218.276 14.837, 216.452 11.996, 214.628 12.006 C 214.007 12.009, 187.850 27.749, 156.500 46.982 M 176.235 112.266 C 173.889 113.445, 172.123 114.870, 172.311 115.433 C 172.806 116.918, 181.171 121.829, 183.364 121.921 C 185.489 122.011, 193 118.043, 193 116.830 C 193 116.162, 181.639 109.870, 180.779 110.062 C 180.625 110.096, 178.581 111.088, 176.235 112.266 M 159.753 121.358 C 157.692 122.536, 156.134 123.887, 156.290 124.361 C 156.446 124.834, 159.120 126.634, 162.232 128.361 L 167.890 131.500 172.445 129.021 C 174.950 127.657, 177 126.204, 177 125.791 C 177 124.694, 166.763 119.001, 165 119.118 C 164.175 119.172, 161.814 120.181, 159.753 121.358 M 194.750 124.068 C 192.688 125.157, 191 126.424, 191 126.885 C 191 127.345, 193.715 129.168, 197.033 130.937 L 203.065 134.152 207.533 131.534 C 209.990 130.094, 211.999 128.597, 211.998 128.208 C 211.994 127.222, 201.798 121.990, 199.984 122.044 C 199.168 122.069, 196.813 122.979, 194.750 124.068 M 143.761 130.294 C 141.704 131.507, 140.146 132.887, 140.298 133.361 C 140.450 133.834, 143.120 135.634, 146.232 137.361 L 151.890 140.500 156.445 138.021 C 158.950 136.657, 160.994 135.082, 160.986 134.521 C 160.967 133.196, 151.527 127.987, 149.249 128.044 C 148.287 128.069, 145.817 129.081, 143.761 130.294 M 179.926 132.430 C 177.537 133.708, 175.458 135.146, 175.307 135.627 C 174.926 136.833, 184.514 142, 187.132 142 C 189.544 142, 196 138.311, 196 136.933 C 196 136.436, 193.361 134.696, 190.135 133.068 L 184.269 130.107 179.926 132.430 M 214.500 134.991 C 212.850 136.078, 211.500 137.449, 211.500 138.038 C 211.500 138.626, 214.010 140.498, 217.077 142.197 L 222.654 145.287 227.327 142.548 C 229.898 141.042, 231.743 139.394, 231.429 138.886 C 230.560 137.479, 221.305 132.999, 219.283 133.007 C 218.302 133.010, 216.150 133.903, 214.500 134.991 M 127.735 139.228 C 125.664 140.428, 124.106 141.818, 124.272 142.316 C 124.438 142.814, 127.082 144.617, 130.148 146.323 L 135.723 149.425 140.362 146.964 C 142.913 145.611, 144.994 144.053, 144.986 143.502 C 144.967 142.203, 135.529 136.993, 133.249 137.023 C 132.287 137.036, 129.806 138.028, 127.735 139.228 M 163.232 141.577 C 160.885 142.983, 159.202 144.518, 159.492 144.987 C 160.395 146.449, 169.158 151, 171.069 151 C 173.204 151, 180 147.176, 180 145.975 C 180 145.085, 169.837 138.994, 168.378 139.009 C 167.895 139.015, 165.580 140.170, 163.232 141.577 M 199.250 143.566 C 196.912 144.967, 195 146.475, 195 146.917 C 195 147.360, 197.715 149.168, 201.033 150.937 L 207.065 154.152 211.533 151.534 C 213.990 150.094, 216 148.589, 216 148.189 C 216 147.560, 204.891 140.984, 203.873 141.009 C 203.668 141.015, 201.588 142.165, 199.250 143.566 M 233.601 146.458 L 229.701 148.854 234.530 151.917 C 241.520 156.350, 242.516 156.474, 247.531 153.535 C 249.989 152.094, 252 150.719, 252 150.478 C 252 149.501, 241.358 144.020, 239.500 144.041 C 238.400 144.053, 235.745 145.141, 233.601 146.458 M 111.686 148.101 C 109.588 149.208, 108.047 150.641, 108.262 151.286 C 108.746 152.738, 116.955 157.813, 119 157.924 C 121.211 158.044, 129.055 153.664, 128.674 152.523 C 128.164 150.993, 119.729 146.161, 117.500 146.123 C 116.400 146.104, 113.784 146.994, 111.686 148.101 M 147.815 150.035 C 145.788 151.105, 143.857 152.423, 143.523 152.963 C 142.735 154.237, 151.837 159.956, 154.693 159.981 C 157.104 160.002, 164 156.292, 164 154.975 C 164 154.064, 153.786 147.973, 152.378 148.044 C 151.895 148.069, 149.842 148.964, 147.815 150.035 M 183.578 152.266 C 181.421 153.495, 179.494 154.992, 179.296 155.594 C 179.099 156.196, 181.666 158.142, 185.001 159.920 L 191.065 163.152 195.533 160.534 C 197.990 159.094, 200 157.547, 200 157.097 C 200 156.410, 188.953 149.967, 187.860 150.016 C 187.662 150.025, 185.735 151.038, 183.578 152.266 M 218.250 155.115 C 216.463 156.260, 215 157.569, 215 158.025 C 215 159.003, 225.224 165, 226.892 165 C 228.833 165, 236.108 159.983, 235.527 159.044 C 234.529 157.429, 225.782 153, 223.624 153.017 C 222.456 153.026, 220.037 153.970, 218.250 155.115 M 94.753 157.358 C 92.692 158.536, 91.004 159.799, 91.003 160.164 C 90.999 161.184, 100.828 167, 102.555 167 C 104.391 167, 111.630 163.408, 112.442 162.093 C 113.173 160.911, 102.899 154.963, 100.378 155.108 C 99.345 155.168, 96.814 156.181, 94.753 157.358 M 131.250 159.259 C 128.912 160.433, 127 161.918, 127 162.558 C 127 163.198, 129.588 165.094, 132.750 166.771 L 138.500 169.820 143.250 167.391 C 145.863 166.055, 148 164.563, 148 164.076 C 148 163.159, 137.617 156.952, 136.265 157.062 C 135.844 157.096, 133.588 158.085, 131.250 159.259 M 166.762 161.686 C 161.298 164.727, 161.455 165.213, 169.274 169.431 L 174.707 172.362 179.353 169.639 C 181.909 168.141, 184 166.589, 184 166.189 C 184 165.551, 172.845 158.961, 171.873 159.024 C 171.668 159.038, 169.368 160.235, 166.762 161.686 M 194.654 168.489 C 188.689 171.955, 183.366 175.234, 182.824 175.776 C 181.713 176.887, 191.574 183, 194.475 183 C 197.013 183, 220.099 169.798, 219.693 168.579 C 219.100 166.800, 210.625 162.156, 208 162.173 C 206.625 162.181, 200.620 165.024, 194.654 168.489 M 114.209 168.698 C 109.221 171.601, 109.472 172.306, 116.939 176.371 L 121.913 179.078 126.994 176.503 C 129.788 175.087, 131.800 173.485, 131.465 172.944 C 130.658 171.637, 120.777 165.994, 119.500 166.109 C 118.950 166.159, 116.569 167.324, 114.209 168.698 M 150.675 170.765 C 148.104 172.179, 146 173.606, 146 173.935 C 146 174.264, 148.503 176.030, 151.562 177.859 C 157.572 181.454, 159.182 181.472, 164.799 178.005 C 168.646 175.632, 168.352 174.763, 162.682 171.747 C 155.805 168.090, 155.575 168.071, 150.675 170.765 M 213.500 196.004 C 187.100 210.813, 164.876 222.946, 164.114 222.965 C 163.352 222.984, 142.482 211.502, 117.736 197.449 C 92.990 183.396, 71.525 171.655, 70.035 171.357 C 66.207 170.591, 63.999 173.143, 64.006 178.321 C 64.014 184.533, 65.650 189.305, 68.744 192.137 C 70.260 193.525, 90.848 206.099, 114.496 220.080 L 157.492 245.500 163.996 245.500 L 170.500 245.500 216.247 219.500 L 261.993 193.500 261.997 181.250 C 261.998 174.512, 261.887 169.018, 261.750 169.040 C 261.613 169.061, 239.900 181.196, 213.500 196.004 M 133.750 180.220 C 131.688 181.415, 130 182.754, 130 183.195 C 130 184.404, 139.241 189.959, 141.290 189.981 C 143.306 190.002, 150.562 186.518, 151.432 185.110 C 152.113 184.008, 141.781 177.990, 139.265 178.023 C 138.294 178.036, 135.813 179.024, 133.750 180.220 M 170.597 182.266 C 168.450 183.495, 166.694 184.950, 166.694 185.500 C 166.694 186.050, 169.260 188.026, 172.396 189.891 L 178.098 193.282 182.776 190.710 C 185.349 189.295, 187.582 187.754, 187.738 187.286 C 188.053 186.342, 177.499 179.990, 175.660 180.016 C 175.022 180.025, 172.744 181.038, 170.597 182.266 M 154.196 191.598 C 151.829 193.017, 150.060 194.680, 150.265 195.295 C 150.470 195.910, 153.167 197.783, 156.258 199.456 L 161.879 202.500 166.521 200 C 169.074 198.625, 171.356 197.198, 171.592 196.829 C 172.040 196.128, 160.886 188.993, 159.369 189.009 C 158.891 189.015, 156.563 190.180, 154.196 191.598 M 212.500 238.135 C 164.911 264.867, 164.474 265.086, 161.500 263.674 C 159.850 262.891, 138.951 251.169, 115.058 237.625 C 87.180 221.822, 70.623 213, 68.843 213 C 67.125 213, 65.677 213.736, 65.035 214.934 C 63.283 218.209, 63.852 225.283, 66.250 230.029 C 68.149 233.786, 69.983 235.355, 78 240.081 C 83.225 243.161, 103.192 254.967, 122.372 266.318 C 141.552 277.668, 158.764 287.240, 160.622 287.589 C 162.480 287.937, 165.463 287.948, 167.250 287.612 C 169.037 287.276, 190.975 275.406, 216 261.233 L 261.500 235.466 261.781 223.233 C 261.935 216.505, 261.710 211.039, 261.281 211.086 C 260.851 211.133, 238.900 223.305, 212.500 238.135" stroke="none" fill="#167dc4" fill-rule="evenodd"/></svg>