<svg xmlns="http://www.w3.org/2000/svg" id="socsci" width="21" height="21" viewBox="0 0 600 600"><defs><style>.cls-1{fill:#f20c92;fill-rule:evenodd}</style></defs><path id="social_copy" d="M392.5,410a20,20,0,0,1-20,20s-35.692,8-71.537,8c-36.154,0-72.463-8-72.463-8a20,20,0,0,1-20-20l-6-62c0-26.667,28.738-52,97.784-52,69.621,0,98.216,25.333,98.216,52Zm-92-124a62,62,0,1,1,62-62A62,62,0,0,1,300.5,286Zm215.224,93.681a15.93,15.93,0,0,1-15.918,15.942S471.4,402,442.868,402a252.917,252.917,0,0,1-26.234-1.491l5.866-60.683c0-16.258-8.547-32.108-27.394-44.07,11.89-4.327,27.474-6.945,47.222-6.945,55.413,0,78.172,20.194,78.172,41.45ZM442.5,280.841a49.421,49.421,0,1,1,49.347-49.421A49.384,49.384,0,0,1,442.5,280.841Zm-286,0a49.421,49.421,0,1,1,49.347-49.421A49.384,49.384,0,0,1,156.5,280.841Zm48.663,15.39c-18.3,11.905-26.663,27.55-26.663,43.6l5.849,60.508A249.71,249.71,0,0,1,156.868,402c-28.775,0-57.674-6.377-57.674-6.377a15.93,15.93,0,0,1-15.918-15.942L78.5,330.261c0-21.256,22.874-41.45,77.828-41.45C176.968,288.811,193.072,291.616,205.163,296.231Z" class="cls-1" data-name="social copy"/></svg>